<svg width="200" height="28" viewBox="0 0 266 45" fill="none" xmlns="http://www.w3.org/2000/svg">
<path d="M0.41626 33.857V0H9.50929L18.5056 24.0385L27.5019 0H36.4015V33.857H28.9045V11.8983L21.4076 33.857H15.6036L7.91318 11.7532V33.857H0.41626Z" fill="#266431"/>
<path d="M57.9676 10.5441H65.3677V33.1315C65.3677 36.9042 64.0135 39.7578 62.0304 41.5474C59.9506 43.337 57.3871 44.256 53.4694 44.256C49.5033 44.256 46.7947 43.4337 44.86 41.8376C43.1672 40.3866 42.0064 38.2101 41.958 35.695H49.4066C49.5517 37.6781 50.6641 38.8389 53.4694 38.8389C56.178 38.8389 57.9676 37.2427 57.9676 33.6152V29.9877C56.6616 32.4544 54.0982 33.857 50.5674 33.857C44.6182 33.857 41.958 29.8909 41.958 24.0869V10.5441H49.3582V22.9744C49.3582 25.9732 50.3739 28.0046 53.4694 28.0046C56.4682 28.0046 57.9676 25.683 57.9676 22.1038V10.5441Z" fill="#266431"/>
<path d="M78.2661 34.1472V0.290202H82.6675V15.3324H98.4352V0.290202H102.837V34.1472H98.4352V19.2985H82.6675V34.1472H78.2661Z" fill="#266431"/>
<path d="M119.183 34.7277C112.315 34.7277 108.01 30.1811 108.01 22.9744C108.01 15.9128 112.363 11.2696 118.99 11.2696C125.278 11.2696 129.534 15.6226 129.534 21.7652C129.534 22.5875 129.534 23.2163 129.437 24.232H112.17C112.267 28.5367 114.927 31.0517 119.183 31.0517C122.134 31.0517 124.165 29.8909 125.084 27.7628H129.292C128.518 31.874 124.407 34.7277 119.183 34.7277ZM112.17 20.9914H125.423C125.423 17.0736 123.004 14.6553 118.941 14.6553C114.879 14.6553 112.363 17.2187 112.17 20.9914Z" fill="#266431"/>
<path d="M134.491 34.1472V11.85H138.699V16.9285C139.569 13.1559 142.423 11.5114 145.228 11.5114C146.002 11.5114 146.728 11.5598 147.26 11.7049V15.5742C146.534 15.4291 145.954 15.4291 145.18 15.4291C140.778 15.4291 138.699 19.4436 138.699 24.4254V34.1472H134.491Z" fill="#266431"/>
<path d="M163.77 11.2696C170.154 11.2696 174.556 16.0579 174.556 23.0228C174.556 29.8426 169.961 34.7277 163.528 34.7277C160.094 34.7277 156.998 32.9864 155.547 30.2295V34.1472H151.388V0.290202H155.547V15.8161C156.998 13.0108 160.191 11.2696 163.77 11.2696ZM155.354 23.0228C155.354 27.666 158.498 30.955 162.948 30.955C167.252 30.955 170.348 27.666 170.348 23.0228C170.348 18.3795 167.252 15.0422 162.948 15.0422C158.498 15.0422 155.354 18.3312 155.354 23.0228Z" fill="#266431"/>
<path d="M188.67 34.7277C181.56 34.7277 177.643 29.6007 177.643 23.0228C177.643 16.4448 181.851 11.2696 188.767 11.2696C192.298 11.2696 195.2 13.0591 196.603 15.8161V11.85H200.762V34.1472H196.603V30.2295C195.2 32.9864 192.008 34.7277 188.67 34.7277ZM181.802 23.0228C181.802 27.5693 184.656 30.955 189.251 30.955C194.136 30.955 196.796 27.3275 196.796 23.0228C196.796 18.7181 194.136 15.0422 189.251 15.0422C184.656 15.0422 181.802 18.4279 181.802 23.0228Z" fill="#266431"/>
<path d="M207.476 34.1472V0.290202H211.684V34.1472H207.476Z" fill="#266431"/>
<path d="M218.422 34.1472V11.85H222.582V34.1472H218.422ZM217.068 4.64325C217.068 2.75693 218.471 1.20918 220.502 1.20918C222.485 1.20918 223.888 2.75693 223.888 4.64325C223.888 6.52957 222.485 8.02896 220.502 8.02896C218.471 8.02896 217.068 6.52957 217.068 4.64325Z" fill="#266431"/>
<path d="M231.449 7.98059C231.449 1.01571 236.14 0 238.559 0C240.01 0 241.219 0.241836 241.945 0.532038V4.11121C241.219 3.91774 240.493 3.77264 239.623 3.77264C237.93 3.77264 235.657 4.11121 235.657 7.88385V11.85H241.945V15.3808H235.657V34.1472H231.449V15.3808H226.709V11.85H231.449V7.98059Z" fill="#266431"/>
<path d="M254.656 34.7277C247.788 34.7277 243.484 30.1811 243.484 22.9744C243.484 15.9128 247.837 11.2696 254.463 11.2696C260.751 11.2696 265.007 15.6226 265.007 21.7652C265.007 22.5875 265.007 23.2163 264.91 24.232H247.643C247.74 28.5367 250.4 31.0517 254.656 31.0517C257.607 31.0517 259.638 29.8909 260.557 27.7628H264.765C263.991 31.874 259.88 34.7277 254.656 34.7277ZM247.643 20.9914H260.896C260.896 17.0736 258.477 14.6553 254.415 14.6553C250.352 14.6553 247.837 17.2187 247.643 20.9914Z" fill="#266431"/>
</svg>
